<?xml version="1.0" encoding="UTF-8" standalone="no"?><!DOCTYPE svg PUBLIC "-//W3C//DTD SVG 1.1//EN" "http://www.w3.org/Graphics/SVG/1.1/DTD/svg11.dtd"><!-- Generated by graphviz version 2.40.1 (20161225.0304)
 --><!-- Title: G Pages: 1 --><svg xmlns="http://www.w3.org/2000/svg" xmlns:xlink="http://www.w3.org/1999/xlink" width="2108pt" height="238pt" viewBox="0.00 0.00 2107.79 238.00">
<g id="graph0" class="graph" transform="scale(1 1) rotate(0) translate(4 234)">
<title>G</title>
<polygon fill="#ffffff" stroke="transparent" points="-4,4 -4,-234 2103.794,-234 2103.794,4 -4,4"/>
<g id="clust1" class="cluster">
<title>cluster0</title>
<polygon fill="none" stroke="#d3d3d3" points="8,-8 8,-117 441.752,-117 441.752,-8 8,-8"/>
<text text-anchor="middle" x="224.876" y="-100.4" font-family="Times,serif" font-size="14.00" fill="#000000">Data Collection</text>
</g>
<g id="clust2" class="cluster">
<title>cluster1</title>
<polygon fill="none" stroke="#d3d3d3" points="467.311,-8 467.311,-117 1184.378,-117 1184.378,-8 467.311,-8"/>
<text text-anchor="middle" x="825.8445" y="-100.4" font-family="Times,serif" font-size="14.00" fill="#000000">Data Processing</text>
</g>
<g id="clust3" class="cluster">
<title>cluster2</title>
<polygon fill="none" stroke="#d3d3d3" points="1209.937,-8 1209.937,-117 1755.892,-117 1755.892,-8 1209.937,-8"/>
<text text-anchor="middle" x="1482.9145" y="-100.4" font-family="Times,serif" font-size="14.00" fill="#000000">Model Development</text>
</g>
<g id="clust4" class="cluster">
<title>cluster3</title>
<polygon fill="none" stroke="#d3d3d3" points="1781.451,-8 1781.451,-117 2091.794,-117 2091.794,-8 1781.451,-8"/>
<text text-anchor="middle" x="1936.6225" y="-100.4" font-family="Times,serif" font-size="14.00" fill="#000000">Deployment &amp; Inference</text>
</g>
<g id="clust5" class="cluster">
<title>cluster4</title>
<polygon fill="none" stroke="#ffffff" points="53.023,-125 53.023,-222 196.142,-222 196.142,-125 53.023,-125"/>
<text text-anchor="middle" x="124.5825" y="-205.4" font-family="Times,serif" font-size="14.00" fill="#000000">Miembros del equipo</text>
</g>
<!-- RawData -->
<g id="node1" class="node">
<title>RawData</title>
<polygon fill="#add8e6" stroke="#add8e6" points="233.2476,-84 15.9174,-84 15.9174,-16 233.2476,-16 233.2476,-84"/>
<text text-anchor="middle" x="124.5825" y="-71" font-family="Helvetica,sans-Serif" font-size="10.00" fill="#000000">Raw Data (Información de Corredores)</text>
<text text-anchor="middle" x="124.5825" y="-59" font-family="Helvetica,sans-Serif" font-size="10.00" fill="#000000">- Tiempos de Carrera</text>
<text text-anchor="middle" x="124.5825" y="-47" font-family="Helvetica,sans-Serif" font-size="10.00" fill="#000000">- Frecuencia Cardíaca</text>
<text text-anchor="middle" x="124.5825" y="-35" font-family="Helvetica,sans-Serif" font-size="10.00" fill="#000000">- Distancia</text>
<text text-anchor="middle" x="124.5825" y="-23" font-family="Helvetica,sans-Serif" font-size="10.00" fill="#000000">Fuente: Archivos CSV, Bases de Datos, APIs</text>
</g>
<!-- DataStorage -->
<g id="node2" class="node">
<title>DataStorage</title>
<polygon fill="#add8e6" stroke="#add8e6" points="433.766,-84 312.71,-84 312.71,-16 433.766,-16 433.766,-84"/>
<text text-anchor="middle" x="373.238" y="-71" font-family="Helvetica,sans-Serif" font-size="10.00" fill="#000000">Data Storage</text>
<text text-anchor="middle" x="373.238" y="-59" font-family="Helvetica,sans-Serif" font-size="10.00" fill="#000000">Herramientas: </text>
<text text-anchor="middle" x="373.238" y="-47" font-family="Helvetica,sans-Serif" font-size="10.00" fill="#000000">- AWS S3</text>
<text text-anchor="middle" x="373.238" y="-35" font-family="Helvetica,sans-Serif" font-size="10.00" fill="#000000">- Azure Blob Storage</text>
<text text-anchor="middle" x="373.238" y="-23" font-family="Helvetica,sans-Serif" font-size="10.00" fill="#000000">- Google Cloud Storage</text>
</g>
<!-- RawData&#45;&gt;DataStorage -->
<g id="edge1" class="edge">
<title>RawData-&gt;DataStorage</title>
<path fill="none" stroke="#000000" d="M233.2847,-50C256.7503,-50 280.9705,-50 302.5298,-50"/>
<polygon fill="#000000" stroke="#000000" points="302.5592,-53.5001 312.5591,-50 302.5591,-46.5001 302.5592,-53.5001"/>
<text text-anchor="middle" x="272.9445" y="-53" font-family="Helvetica,sans-Serif" font-size="10.00" fill="#000000">1</text>
</g>
<!-- DataProcessing -->
<g id="node3" class="node">
<title>DataProcessing</title>
<polygon fill="#add8e6" stroke="#add8e6" points="583.6608,-84 475.1942,-84 475.1942,-16 583.6608,-16 583.6608,-84"/>
<text text-anchor="middle" x="529.4275" y="-71" font-family="Helvetica,sans-Serif" font-size="10.00" fill="#000000">Data Processing</text>
<text text-anchor="middle" x="529.4275" y="-59" font-family="Helvetica,sans-Serif" font-size="10.00" fill="#000000">Herramientas: </text>
<text text-anchor="middle" x="529.4275" y="-47" font-family="Helvetica,sans-Serif" font-size="10.00" fill="#000000">- AWS Glue</text>
<text text-anchor="middle" x="529.4275" y="-35" font-family="Helvetica,sans-Serif" font-size="10.00" fill="#000000">- Azure Data Factory</text>
<text text-anchor="middle" x="529.4275" y="-23" font-family="Helvetica,sans-Serif" font-size="10.00" fill="#000000">- Google Dataflow</text>
</g>
<!-- DataStorage&#45;&gt;DataProcessing -->
<g id="edge2" class="edge">
<title>DataStorage-&gt;DataProcessing</title>
<path fill="none" stroke="#000000" d="M434.0722,-50C444.2223,-50 454.7819,-50 465.0178,-50"/>
<polygon fill="#000000" stroke="#000000" points="465.1186,-53.5001 475.1185,-50 465.1185,-46.5001 465.1186,-53.5001"/>
<text text-anchor="middle" x="454.5315" y="-53" font-family="Helvetica,sans-Serif" font-size="10.00" fill="#000000">2</text>
</g>
<!-- DataCleaning -->
<g id="node4" class="node">
<title>DataCleaning</title>
<polygon fill="#add8e6" stroke="#add8e6" points="765.3011,-84 663.0369,-84 663.0369,-16 765.3011,-16 765.3011,-84"/>
<text text-anchor="middle" x="714.169" y="-71" font-family="Helvetica,sans-Serif" font-size="10.00" fill="#000000">Data Cleaning</text>
<text text-anchor="middle" x="714.169" y="-59" font-family="Helvetica,sans-Serif" font-size="10.00" fill="#000000">Herramientas: </text>
<text text-anchor="middle" x="714.169" y="-47" font-family="Helvetica,sans-Serif" font-size="10.00" fill="#000000">- AWS Glue</text>
<text text-anchor="middle" x="714.169" y="-35" font-family="Helvetica,sans-Serif" font-size="10.00" fill="#000000">- Azure Databricks</text>
<text text-anchor="middle" x="714.169" y="-23" font-family="Helvetica,sans-Serif" font-size="10.00" fill="#000000">- Google Data Prep</text>
</g>
<!-- DataProcessing&#45;&gt;DataCleaning -->
<g id="edge3" class="edge">
<title>DataProcessing-&gt;DataCleaning</title>
<path fill="none" stroke="#000000" d="M583.8568,-50C605.5469,-50 630.6152,-50 652.9362,-50"/>
<polygon fill="#000000" stroke="#000000" points="652.9765,-53.5001 662.9765,-50 652.9765,-46.5001 652.9765,-53.5001"/>
<text text-anchor="middle" x="623.3235" y="-53" font-family="Helvetica,sans-Serif" font-size="10.00" fill="#000000">3</text>
</g>
<!-- DataValidation -->
<g id="node5" class="node">
<title>DataValidation</title>
<polygon fill="#add8e6" stroke="#add8e6" points="989.6485,-84 844.8425,-84 844.8425,-16 989.6485,-16 989.6485,-84"/>
<text text-anchor="middle" x="917.2455" y="-71" font-family="Helvetica,sans-Serif" font-size="10.00" fill="#000000">Data Validation (QA)</text>
<text text-anchor="middle" x="917.2455" y="-59" font-family="Helvetica,sans-Serif" font-size="10.00" fill="#000000">Herramientas: </text>
<text text-anchor="middle" x="917.2455" y="-47" font-family="Helvetica,sans-Serif" font-size="10.00" fill="#000000">- Great Expectations</text>
<text text-anchor="middle" x="917.2455" y="-35" font-family="Helvetica,sans-Serif" font-size="10.00" fill="#000000">- Deequ</text>
<text text-anchor="middle" x="917.2455" y="-23" font-family="Helvetica,sans-Serif" font-size="10.00" fill="#000000">- TensorFlow Data Validation</text>
</g>
<!-- DataCleaning&#45;&gt;DataValidation -->
<g id="edge4" class="edge">
<title>DataCleaning-&gt;DataValidation</title>
<path fill="none" stroke="#000000" d="M765.4138,-50C786.2938,-50 810.9699,-50 834.2917,-50"/>
<polygon fill="#000000" stroke="#000000" points="834.5397,-53.5001 844.5396,-50 834.5396,-46.5001 834.5397,-53.5001"/>
<text text-anchor="middle" x="805.0145" y="-53" font-family="Helvetica,sans-Serif" font-size="10.00" fill="#000000">4</text>
</g>
<!-- DataTransformation -->
<g id="node6" class="node">
<title>DataTransformation</title>
<polygon fill="#add8e6" stroke="#add8e6" points="1176.4391,-84 1069.1949,-84 1069.1949,-16 1176.4391,-16 1176.4391,-84"/>
<text text-anchor="middle" x="1122.817" y="-71" font-family="Helvetica,sans-Serif" font-size="10.00" fill="#000000">Data Transformation</text>
<text text-anchor="middle" x="1122.817" y="-59" font-family="Helvetica,sans-Serif" font-size="10.00" fill="#000000">Herramientas: </text>
<text text-anchor="middle" x="1122.817" y="-47" font-family="Helvetica,sans-Serif" font-size="10.00" fill="#000000">- AWS Glue</text>
<text text-anchor="middle" x="1122.817" y="-35" font-family="Helvetica,sans-Serif" font-size="10.00" fill="#000000">- Azure Databricks</text>
<text text-anchor="middle" x="1122.817" y="-23" font-family="Helvetica,sans-Serif" font-size="10.00" fill="#000000">- Google Dataflow</text>
</g>
<!-- DataValidation&#45;&gt;DataTransformation -->
<g id="edge5" class="edge">
<title>DataValidation-&gt;DataTransformation</title>
<path fill="none" stroke="#000000" d="M989.7223,-50C1012.2753,-50 1036.9663,-50 1058.8912,-50"/>
<polygon fill="#000000" stroke="#000000" points="1059.0803,-53.5001 1069.0803,-50 1059.0803,-46.5001 1059.0803,-53.5001"/>
<text text-anchor="middle" x="1029.4765" y="-53" font-family="Helvetica,sans-Serif" font-size="10.00" fill="#000000">5</text>
</g>
<!-- ProcessedDataStorage -->
<g id="node7" class="node">
<title>ProcessedDataStorage</title>
<polygon fill="#add8e6" stroke="#add8e6" points="1342.8185,-84 1217.9765,-84 1217.9765,-16 1342.8185,-16 1342.8185,-84"/>
<text text-anchor="middle" x="1280.3975" y="-71" font-family="Helvetica,sans-Serif" font-size="10.00" fill="#000000">Processed Data Storage</text>
<text text-anchor="middle" x="1280.3975" y="-59" font-family="Helvetica,sans-Serif" font-size="10.00" fill="#000000">Herramientas: </text>
<text text-anchor="middle" x="1280.3975" y="-47" font-family="Helvetica,sans-Serif" font-size="10.00" fill="#000000">- AWS Redshift</text>
<text text-anchor="middle" x="1280.3975" y="-35" font-family="Helvetica,sans-Serif" font-size="10.00" fill="#000000">- Azure Synapse</text>
<text text-anchor="middle" x="1280.3975" y="-23" font-family="Helvetica,sans-Serif" font-size="10.00" fill="#000000">- BigQuery</text>
</g>
<!-- DataTransformation&#45;&gt;ProcessedDataStorage -->
<g id="edge6" class="edge">
<title>DataTransformation-&gt;ProcessedDataStorage</title>
<path fill="none" stroke="#000000" d="M1176.6065,-50C1186.6739,-50 1197.3489,-50 1207.8737,-50"/>
<polygon fill="#000000" stroke="#000000" points="1207.8939,-53.5001 1217.8938,-50 1207.8938,-46.5001 1207.8939,-53.5001"/>
<text text-anchor="middle" x="1197.1575" y="-53" font-family="Helvetica,sans-Serif" font-size="10.00" fill="#000000">6</text>
</g>
<!-- ModelTraining -->
<g id="node8" class="node">
<title>ModelTraining</title>
<polygon fill="#add8e6" stroke="#add8e6" points="1528.7729,-84 1422.6311,-84 1422.6311,-16 1528.7729,-16 1528.7729,-84"/>
<text text-anchor="middle" x="1475.702" y="-71" font-family="Helvetica,sans-Serif" font-size="10.00" fill="#000000">Model Training</text>
<text text-anchor="middle" x="1475.702" y="-59" font-family="Helvetica,sans-Serif" font-size="10.00" fill="#000000">Herramientas: </text>
<text text-anchor="middle" x="1475.702" y="-47" font-family="Helvetica,sans-Serif" font-size="10.00" fill="#000000">- SageMaker</text>
<text text-anchor="middle" x="1475.702" y="-35" font-family="Helvetica,sans-Serif" font-size="10.00" fill="#000000">- Azure ML</text>
<text text-anchor="middle" x="1475.702" y="-23" font-family="Helvetica,sans-Serif" font-size="10.00" fill="#000000">- Google AI Platform</text>
</g>
<!-- ProcessedDataStorage&#45;&gt;ModelTraining -->
<g id="edge7" class="edge">
<title>ProcessedDataStorage-&gt;ModelTraining</title>
<path fill="none" stroke="#000000" d="M1342.9989,-50C1365.0561,-50 1389.8642,-50 1412.0103,-50"/>
<polygon fill="#000000" stroke="#000000" points="1412.3105,-53.5001 1422.3105,-50 1412.3105,-46.5001 1412.3105,-53.5001"/>
<text text-anchor="middle" x="1382.6375" y="-53" font-family="Helvetica,sans-Serif" font-size="10.00" fill="#000000">7</text>
</g>
<!-- ModelValidation -->
<g id="node9" class="node">
<title>ModelValidation</title>
<polygon fill="#add8e6" stroke="#add8e6" points="1748.0654,-84 1608.3726,-84 1608.3726,-16 1748.0654,-16 1748.0654,-84"/>
<text text-anchor="middle" x="1678.219" y="-71" font-family="Helvetica,sans-Serif" font-size="10.00" fill="#000000">Model Validation (QA)</text>
<text text-anchor="middle" x="1678.219" y="-59" font-family="Helvetica,sans-Serif" font-size="10.00" fill="#000000">Herramientas: </text>
<text text-anchor="middle" x="1678.219" y="-47" font-family="Helvetica,sans-Serif" font-size="10.00" fill="#000000">- SageMaker Model Monitor</text>
<text text-anchor="middle" x="1678.219" y="-35" font-family="Helvetica,sans-Serif" font-size="10.00" fill="#000000">- Azure ML Monitor</text>
<text text-anchor="middle" x="1678.219" y="-23" font-family="Helvetica,sans-Serif" font-size="10.00" fill="#000000">- Google AI Platform</text>
</g>
<!-- ModelTraining&#45;&gt;ModelValidation -->
<g id="edge8" class="edge">
<title>ModelTraining-&gt;ModelValidation</title>
<path fill="none" stroke="#000000" d="M1528.911,-50C1550.0426,-50 1574.8088,-50 1598.0285,-50"/>
<polygon fill="#000000" stroke="#000000" points="1598.2184,-53.5001 1608.2184,-50 1598.2184,-46.5001 1598.2184,-53.5001"/>
<text text-anchor="middle" x="1568.7665" y="-53" font-family="Helvetica,sans-Serif" font-size="10.00" fill="#000000">8</text>
</g>
<!-- ModelDeployment -->
<g id="node10" class="node">
<title>ModelDeployment</title>
<polygon fill="#add8e6" stroke="#add8e6" points="1895.8069,-84 1789.6651,-84 1789.6651,-16 1895.8069,-16 1895.8069,-84"/>
<text text-anchor="middle" x="1842.736" y="-71" font-family="Helvetica,sans-Serif" font-size="10.00" fill="#000000">Model Deployment</text>
<text text-anchor="middle" x="1842.736" y="-59" font-family="Helvetica,sans-Serif" font-size="10.00" fill="#000000">Herramientas: </text>
<text text-anchor="middle" x="1842.736" y="-47" font-family="Helvetica,sans-Serif" font-size="10.00" fill="#000000">- SageMaker</text>
<text text-anchor="middle" x="1842.736" y="-35" font-family="Helvetica,sans-Serif" font-size="10.00" fill="#000000">- Azure ML</text>
<text text-anchor="middle" x="1842.736" y="-23" font-family="Helvetica,sans-Serif" font-size="10.00" fill="#000000">- Google AI Platform</text>
</g>
<!-- ModelValidation&#45;&gt;ModelDeployment -->
<g id="edge9" class="edge">
<title>ModelValidation-&gt;ModelDeployment</title>
<path fill="none" stroke="#000000" d="M1747.989,-50C1758.4325,-50 1769.151,-50 1779.4498,-50"/>
<polygon fill="#000000" stroke="#000000" points="1779.583,-53.5001 1789.5829,-50 1779.5829,-46.5001 1779.583,-53.5001"/>
<text text-anchor="middle" x="1768.6715" y="-53" font-family="Helvetica,sans-Serif" font-size="10.00" fill="#000000">9</text>
</g>
<!-- Inference -->
<g id="node11" class="node">
<title>Inference</title>
<polygon fill="#add8e6" stroke="#add8e6" points="2083.6221,-84 1981.3109,-84 1981.3109,-16 2083.6221,-16 2083.6221,-84"/>
<text text-anchor="middle" x="2032.4665" y="-71" font-family="Helvetica,sans-Serif" font-size="10.00" fill="#000000">Inference</text>
<text text-anchor="middle" x="2032.4665" y="-59" font-family="Helvetica,sans-Serif" font-size="10.00" fill="#000000">Aplicaciones: </text>
<text text-anchor="middle" x="2032.4665" y="-47" font-family="Helvetica,sans-Serif" font-size="10.00" fill="#000000">- Web Apps</text>
<text text-anchor="middle" x="2032.4665" y="-35" font-family="Helvetica,sans-Serif" font-size="10.00" fill="#000000">- APIs</text>
<text text-anchor="middle" x="2032.4665" y="-23" font-family="Helvetica,sans-Serif" font-size="10.00" fill="#000000">- Servicios Móviles</text>
</g>
<!-- ModelDeployment&#45;&gt;Inference -->
<g id="edge10" class="edge">
<title>ModelDeployment-&gt;Inference</title>
<path fill="none" stroke="#000000" d="M1895.8388,-50C1919.1482,-50 1946.6605,-50 1970.8648,-50"/>
<polygon fill="#000000" stroke="#000000" points="1971.0138,-53.5001 1981.0137,-50 1971.0137,-46.5001 1971.0138,-53.5001"/>
<text text-anchor="middle" x="1938.58" y="-53" font-family="Helvetica,sans-Serif" font-size="10.00" fill="#000000">10</text>
</g>
<!-- TeamMembers -->
<g id="node12" class="node">
<title>TeamMembers</title>
<polygon fill="#add8e6" stroke="#add8e6" points="188.2016,-189 60.9634,-189 60.9634,-133 188.2016,-133 188.2016,-189"/>
<text text-anchor="middle" x="124.5825" y="-176" font-family="Helvetica,sans-Serif" font-size="10.00" fill="#000000">Cayetano Molina 20211</text>
<text text-anchor="middle" x="124.5825" y="-164" font-family="Helvetica,sans-Serif" font-size="10.00" fill="#000000">Estefanía Elvira 20275</text>
<text text-anchor="middle" x="124.5825" y="-152" font-family="Helvetica,sans-Serif" font-size="10.00" fill="#000000">Roberto Ríos 20979</text>
<text text-anchor="middle" x="124.5825" y="-140" font-family="Helvetica,sans-Serif" font-size="10.00" fill="#000000">Priscilla González 20689</text>
</g>
</g>
</svg>